# xmcd
#
# Track frame offsets:
#	150
#	31262
#	69763
#	86094
#	112126
#	131827
#	140111
#	151221
#	189683
#
# Disc length: 2694 seconds
#
# Revision: 1
# Processed by: cddbd v1.5.2PL0 Copyright (c) Steve Scherf et al.
# Submitted via: audiograbber 1.83.01
#
DISCID=7f0a8409
DTITLE=Mick Pluto - Mick Pluto Box - Waves IV
DYEAR=2012
DGENRE=Electronic
TTITLE0=Scratch me
TTITLE1=Mystery Ship
TTITLE2=Androiden Randale
TTITLE3=Auriga
TTITLE4=Der Schlangenträger
TTITLE5=Mikroben on Stage
TTITLE6=Live at Dinotreffen No1
TTITLE7=Spacequirlschwabbelritt
TTITLE8=Papersession mit Typewriter
EXTD=
EXTT0=
EXTT1=
EXTT2=
EXTT3=
EXTT4=
EXTT5=
EXTT6=
EXTT7=
EXTT8=
PLAYORDER=
